<svg width="70" height="70" viewBox="0 0 70 70" fill="none" xmlns="http://www.w3.org/2000/svg">
<g clip-path="url(#clip0_26374_33)">
<path d="M53.0169 0L16.231 0C7.26795 0 0.00195312 7.266 0.00195312 16.2291L0.00195312 53.015C0.00195312 61.978 7.26795 69.244 16.231 69.244L53.0169 69.244C61.98 69.244 69.246 61.978 69.246 53.015L69.246 16.2291C69.246 7.266 61.98 0 53.0169 0Z" fill="#0277BD"/>
<path d="M14.5405 27.7674L15.3146 36.4072H34.6491V27.7674L14.5405 27.7674ZM34.6488 10.2803L12.9844 10.2803L13.7699 18.9201L34.6488 18.9201V10.2803ZM34.6488 59.1949V50.2059L34.611 50.2159L24.9887 47.6179L24.3737 40.7271H15.7006L16.911 54.293L34.6091 59.206L34.6488 59.1949Z" fill="#EBEBEB"/>
<path d="M45.2586 36.4072L44.2556 47.6123L34.6196 50.2132V59.2017L52.3318 54.293L52.4616 52.8332L54.4919 30.0876L54.7026 27.7674L56.2624 10.2803L34.6196 10.2803V18.9201H46.7939L46.0078 27.7674L34.6196 27.7674L34.6196 36.4072H45.2586Z" fill="white"/>
</g>
<defs>
<clipPath id="clip0_26374_33">
<rect width="69.244" height="69.244" fill="white"/>
</clipPath>
</defs>
</svg>
