<svg width="76" height="76" viewBox="0 0 76 76" fill="none" xmlns="http://www.w3.org/2000/svg">
<path d="M13.882 63.9736L8.59717 4.70215L66.6668 4.70215L61.3749 63.9642L37.5967 70.5567L13.882 63.9736Z" fill="#E44F26"/>
<path d="M37.6357 65.5172L56.8512 60.19L61.3716 9.54785L37.6357 9.54785L37.6357 65.5172Z" fill="#F1662A"/>
<path d="M37.6363 31.5292L28.0168 31.5292L27.3536 24.0853L37.6363 24.0853V16.8154L19.4087 16.8154L19.5827 18.7675L21.3679 38.7991H37.6363V31.5292ZM37.6363 50.4083L37.6034 50.4177L29.508 48.2328L28.9905 42.4352H21.6924L22.7108 53.8469L37.6034 57.9816L37.6363 57.9722V50.4083Z" fill="#EBEBEB"/>
<path d="M37.6064 31.5312L37.6064 38.8011H46.558L45.716 48.23L37.6064 50.4173V57.9812L52.5107 53.8488L52.6189 52.6211L54.3264 33.4833L54.5052 31.5312L37.6064 31.5312ZM37.6064 16.8174V24.0873L55.1661 24.0873L55.3119 22.455L55.6435 18.7695L55.8176 16.8174L37.6064 16.8174Z" fill="white"/>
</svg>
