<svg width="187" height="34" viewBox="0 0 187 34" fill="none" xmlns="http://www.w3.org/2000/svg">
<path d="M69.7241 22.2619C69.7241 20.8433 71.3098 19.7384 73.1268 19.8909L129.599 24.6295C136.563 25.2139 142.432 20.6422 141.655 15.2394C140.854 9.6759 133.462 6.22329 126.754 8.28022L73.9255 24.4799C71.9091 25.0982 69.7241 23.9448 69.7241 22.2619Z" fill="url(#paint0_linear_0_1)"/>
<g filter="url(#filter0_d_0_1)">
<path d="M15.92 18.32L16.08 25.68H11.96L12.16 18.32L12.12 16.76L4 -4.76837e-07H8.4L8.92 1.6L14 12.36H14.32L19.96 1.68L20.6 -4.76837e-07H24.88L15.96 16.56L15.92 18.32ZM42.7294 25.68H38.8494L38.3294 23.2L37.6094 21L33.1294 20.96L29.1294 21L28.3694 23L27.8094 25.68H24.0094L31.4894 5.64H35.9694L42.7294 25.68ZM36.6094 18L33.7694 9.24H33.4894L30.2494 18L33.4094 18.04L36.6094 18ZM53.6716 5.4C55.3782 5.4 57.0849 5.73333 58.7916 6.4L58.1916 10.04L57.5916 10.16C56.0449 8.93333 54.5782 8.32 53.1916 8.32C52.2049 8.32 51.4182 8.57333 50.8316 9.08C50.2716 9.58667 49.9916 10.1733 49.9916 10.84C49.9916 11.5067 50.2849 12.0667 50.8716 12.52C51.4849 12.9467 52.4316 13.4267 53.7116 13.96C54.9116 14.4667 55.8716 14.9467 56.5916 15.4C57.3382 15.8267 57.9782 16.4 58.5116 17.12C59.0449 17.84 59.3116 18.7333 59.3116 19.8C59.3116 20.8933 59.0182 21.9067 58.4316 22.84C57.8716 23.7733 57.0182 24.5333 55.8716 25.12C54.7516 25.68 53.3916 25.96 51.7916 25.96C50.8316 25.96 49.8182 25.8533 48.7516 25.64C47.6849 25.4267 46.6582 25.1067 45.6716 24.68L46.1916 20.8L46.6316 20.56C47.4049 21.3333 48.3116 21.9467 49.3516 22.4C50.4182 22.8267 51.3916 23.04 52.2716 23.04C53.2316 23.04 54.0049 22.8 54.5916 22.32C55.2049 21.8133 55.5116 21.2 55.5116 20.48C55.5116 19.76 55.2049 19.1867 54.5916 18.76C53.9782 18.3067 53.0316 17.8133 51.7516 17.28C50.6049 16.7733 49.6582 16.3067 48.9116 15.88C48.1649 15.4267 47.5249 14.84 46.9916 14.12C46.4849 13.3733 46.2316 12.4667 46.2316 11.4C46.2316 10.28 46.5249 9.26667 47.1116 8.36C47.7249 7.45333 48.5916 6.73333 49.7116 6.2C50.8582 5.66667 52.1782 5.4 53.6716 5.4ZM81.7363 19.32L81.8963 25.68H78.0563L78.1763 19.68L78.1363 17.28L72.9763 17.24L68.2563 17.32L68.2163 19.32L68.3763 25.68H64.5363L64.6963 19.68L64.5363 5.64H68.4163L68.2963 13.96L73.2563 14.04L78.1363 14L78.0563 5.64H81.9363L81.7363 19.32ZM96.1206 5.6C98.2806 5.6 99.9473 6.13333 101.121 7.2C102.321 8.24 102.921 9.73333 102.921 11.68C102.921 13.9733 102.161 15.7867 100.641 17.12C99.1206 18.4267 97.0673 19.08 94.4806 19.08H92.2006V19.32L92.3606 25.68H88.5206L88.6806 19.68L88.5206 5.64L96.1206 5.6ZM95.4406 16.2C97.734 15.72 98.8806 14.32 98.8806 12C98.8806 10.8533 98.5606 10 97.9206 9.44C97.2806 8.88 96.294 8.57333 94.9606 8.52L92.3606 8.6L92.2406 16.12L95.4406 16.2ZM121.792 25.68H117.912L117.392 23.2L116.672 21L112.192 20.96L108.192 21L107.432 23L106.872 25.68H103.072L110.552 5.64H115.032L121.792 25.68ZM115.672 18L112.832 9.24H112.552L109.312 18L112.472 18.04L115.672 18ZM139.814 22.6L139.494 25.68H126.294L126.574 17.96L126.294 -4.76837e-07H130.534L130.294 17.6L130.374 22.24H139.534L139.814 22.6Z" fill="white"/>
</g>
<defs>
<filter id="filter0_d_0_1" x="1.90735e-06" y="0" width="143.814" height="33.96" filterUnits="userSpaceOnUse" color-interpolation-filters="sRGB">
<feFlood flood-opacity="0" result="BackgroundImageFix"/>
<feColorMatrix in="SourceAlpha" type="matrix" values="0 0 0 0 0 0 0 0 0 0 0 0 0 0 0 0 0 0 127 0" result="hardAlpha"/>
<feOffset dy="4"/>
<feGaussianBlur stdDeviation="2"/>
<feComposite in2="hardAlpha" operator="out"/>
<feColorMatrix type="matrix" values="0 0 0 0 0 0 0 0 0 0 0 0 0 0 0 0 0 0 0.25 0"/>
<feBlend mode="normal" in2="BackgroundImageFix" result="effect1_dropShadow_0_1"/>
<feBlend mode="normal" in="SourceGraphic" in2="effect1_dropShadow_0_1" result="shape"/>
</filter>
<linearGradient id="paint0_linear_0_1" x1="339.598" y1="11.0363" x2="322.151" y2="83.2633" gradientUnits="userSpaceOnUse">
<stop stop-color="#DF8908"/>
<stop offset="1" stop-color="#B415FF"/>
</linearGradient>
</defs>
</svg>
