<svg width="201" height="42" viewBox="0 0 201 42" fill="none" xmlns="http://www.w3.org/2000/svg">
<path d="M81.2689 26.8289C81.2689 25.0766 83.207 23.7117 85.4278 23.9L154.45 29.7536C162.961 30.4755 170.134 24.8281 169.184 18.1541C168.206 11.2815 159.17 7.01654 150.972 9.55745L86.404 29.5688C83.9394 30.3326 81.2689 28.9078 81.2689 26.8289Z" fill="url(#paint0_linear_0_1)"/>
<g filter="url(#filter0_d_0_1)">
<path d="M18.304 21.984L18.496 30.816H13.552L13.792 21.984L13.744 20.112L4 9.53674e-07H9.28L9.904 1.92L16 14.832H16.384L23.152 2.016L23.92 9.53674e-07H29.056L18.352 19.872L18.304 21.984ZM50.4753 30.816H45.8193L45.1953 27.84L44.3313 25.2L38.9553 25.152L34.1553 25.2L33.2433 27.6L32.5713 30.816H28.0113L36.9873 6.768H42.3633L50.4753 30.816ZM43.1313 21.6L39.7233 11.088H39.3873L35.4993 21.6L39.2913 21.648L43.1313 21.6ZM63.6059 6.48C65.6539 6.48 67.7019 6.88 69.7499 7.68L69.0299 12.048L68.3099 12.192C66.4539 10.72 64.6939 9.984 63.0299 9.984C61.8459 9.984 60.9019 10.288 60.1979 10.896C59.5259 11.504 59.1899 12.208 59.1899 13.008C59.1899 13.808 59.5419 14.48 60.2459 15.024C60.9819 15.536 62.1179 16.112 63.6539 16.752C65.0939 17.36 66.2459 17.936 67.1099 18.48C68.0059 18.992 68.7739 19.68 69.4139 20.544C70.0539 21.408 70.3739 22.48 70.3739 23.76C70.3739 25.072 70.0219 26.288 69.3179 27.408C68.6459 28.528 67.6219 29.44 66.2459 30.144C64.9019 30.816 63.2699 31.152 61.3499 31.152C60.1979 31.152 58.9819 31.024 57.7019 30.768C56.4219 30.512 55.1899 30.128 54.0059 29.616L54.6299 24.96L55.1579 24.672C56.0859 25.6 57.1739 26.336 58.4219 26.88C59.7019 27.392 60.8699 27.648 61.9259 27.648C63.0779 27.648 64.0059 27.36 64.7099 26.784C65.4459 26.176 65.8139 25.44 65.8139 24.576C65.8139 23.712 65.4459 23.024 64.7099 22.512C63.9739 21.968 62.8379 21.376 61.3019 20.736C59.9259 20.128 58.7899 19.568 57.8939 19.056C56.9979 18.512 56.2299 17.808 55.5899 16.944C54.9819 16.048 54.6779 14.96 54.6779 13.68C54.6779 12.336 55.0299 11.12 55.7339 10.032C56.4699 8.944 57.5099 8.08 58.8539 7.44C60.2299 6.8 61.8139 6.48 63.6059 6.48ZM97.2835 23.184L97.4755 30.816H92.8675L93.0115 23.616L92.9635 20.736L86.7715 20.688L81.1075 20.784L81.0595 23.184L81.2515 30.816H76.6435L76.8355 23.616L76.6435 6.768H81.2995L81.1555 16.752L87.1075 16.848L92.9635 16.8L92.8675 6.768H97.5235L97.2835 23.184ZM114.545 6.72C117.137 6.72 119.137 7.36 120.545 8.64C121.985 9.888 122.705 11.68 122.705 14.016C122.705 16.768 121.793 18.944 119.969 20.544C118.145 22.112 115.681 22.896 112.577 22.896H109.841V23.184L110.033 30.816H105.425L105.617 23.616L105.425 6.768L114.545 6.72ZM113.729 19.44C116.481 18.864 117.857 17.184 117.857 14.4C117.857 13.024 117.473 12 116.705 11.328C115.937 10.656 114.753 10.288 113.153 10.224L110.033 10.32L109.889 19.344L113.729 19.44ZM145.35 30.816H140.694L140.07 27.84L139.206 25.2L133.83 25.152L129.03 25.2L128.118 27.6L127.446 30.816H122.886L131.862 6.768H137.238L145.35 30.816ZM138.006 21.6L134.598 11.088H134.262L130.374 21.6L134.166 21.648L138.006 21.6ZM166.977 27.12L166.593 30.816H150.753L151.089 21.552L150.753 9.53674e-07H155.841L155.553 21.12L155.649 26.688H166.641L166.977 27.12Z" fill="white"/>
</g>
<defs>
<filter id="filter0_d_0_1" x="0" y="0" width="170.977" height="39.152" filterUnits="userSpaceOnUse" color-interpolation-filters="sRGB">
<feFlood flood-opacity="0" result="BackgroundImageFix"/>
<feColorMatrix in="SourceAlpha" type="matrix" values="0 0 0 0 0 0 0 0 0 0 0 0 0 0 0 0 0 0 127 0" result="hardAlpha"/>
<feOffset dy="4"/>
<feGaussianBlur stdDeviation="2"/>
<feComposite in2="hardAlpha" operator="out"/>
<feColorMatrix type="matrix" values="0 0 0 0 0 0 0 0 0 0 0 0 0 0 0 0 0 0 0.25 0"/>
<feBlend mode="normal" in2="BackgroundImageFix" result="effect1_dropShadow_0_1"/>
<feBlend mode="normal" in="SourceGraphic" in2="effect1_dropShadow_0_1" result="shape"/>
</filter>
<linearGradient id="paint0_linear_0_1" x1="411.114" y1="12.962" x2="389.357" y2="102.078" gradientUnits="userSpaceOnUse">
<stop stop-color="#DF8908"/>
<stop offset="1" stop-color="#B415FF"/>
</linearGradient>
</defs>
</svg>
