<svg width="70" height="70" viewBox="0 0 70 70" fill="none" xmlns="http://www.w3.org/2000/svg">
<g clip-path="url(#clip0_26374_28)">
<path d="M53.0081 -0.00195312H16.2222C7.25916 -0.00195312 -0.00683594 7.26405 -0.00683594 16.2271V53.013C-0.00683594 61.9761 7.25916 69.2421 16.2222 69.2421H53.0081C61.9712 69.2421 69.2372 61.9761 69.2372 53.013V16.2271C69.2372 7.26405 61.9712 -0.00195312 53.0081 -0.00195312Z" fill="#242938"/>
<path d="M32.4186 8.4132C33.7491 7.65179 35.4818 7.64827 36.811 8.4132C43.4979 12.1919 50.187 15.9643 56.8728 19.7451C58.1306 20.4535 58.9715 21.853 58.9588 23.302V46.0349C58.9683 47.5439 58.044 48.9769 56.7173 49.6691C50.0523 53.4269 43.3905 57.1891 36.7266 60.947C35.369 61.7233 33.6014 61.6635 32.2858 60.8233C30.2877 59.6651 28.2861 58.5123 26.2878 57.3552C25.8794 57.1118 25.419 56.9181 25.1307 56.5221C25.3857 56.1786 25.8415 56.1358 26.2118 55.9857C27.0457 55.7204 27.812 55.2946 28.578 54.8816C28.7719 54.7491 29.0083 54.7999 29.1942 54.9184C30.9028 55.8981 32.5966 56.9065 34.3109 57.8767C34.6766 58.0879 35.0469 57.8074 35.3596 57.6333C41.8999 53.9365 48.4483 50.2542 54.9878 46.5564C55.2302 46.4398 55.3641 46.1826 55.3443 45.9172C55.3489 38.418 55.3454 30.9178 55.3468 23.4183C55.3743 23.1175 55.2001 22.8406 54.9278 22.7172C48.286 18.9767 41.6473 15.2308 35.0066 11.4894C34.8915 11.4104 34.7553 11.3679 34.6157 11.3677C34.4761 11.3675 34.3397 11.4094 34.2243 11.4881C27.5834 15.2308 20.9463 18.9805 14.3053 22.7205C14.034 22.8441 13.852 23.1165 13.8842 23.4183C13.8855 30.9178 13.8842 38.418 13.8842 45.9183C13.8726 46.0479 13.901 46.1779 13.9656 46.2908C14.0303 46.4037 14.128 46.494 14.2456 46.5496C16.0175 47.5545 17.7919 48.5523 19.5652 49.5539C20.5643 50.0913 21.7907 50.411 22.8916 49.9991C23.8626 49.6507 24.5434 48.6594 24.525 47.6283C24.5342 40.1729 24.5204 32.7165 24.5318 25.2619C24.5075 24.9311 24.8215 24.6577 25.1434 24.6891C25.9949 24.6831 26.8474 24.6774 27.6989 24.6912C28.0543 24.6831 28.2988 25.0396 28.255 25.3728C28.2515 32.8755 28.2642 40.3782 28.2493 47.8807C28.2515 49.8804 27.43 52.0561 25.5805 53.0345C23.3022 54.2146 20.4859 53.9644 18.2349 52.8327C16.2864 51.86 14.4265 50.7121 12.5126 49.6702C11.1823 48.9818 10.2627 47.5431 10.2721 46.0352V23.302C10.2581 21.823 11.1328 20.3981 12.4293 19.7C19.0932 15.9394 25.756 12.1756 32.4186 8.4132Z" fill="#81CD39"/>
<path d="M38.2295 24.162C41.1359 23.9749 44.2472 24.0511 46.8626 25.4831C48.8877 26.5802 50.0102 28.8831 50.0459 31.1327C49.9894 31.4359 49.6721 31.6033 49.3824 31.5825C48.5393 31.5814 47.6956 31.5941 46.8525 31.5768C46.4947 31.5906 46.287 31.2609 46.2421 30.9447C45.9997 29.8682 45.4125 28.8022 44.3995 28.2829C42.8442 27.5044 41.0412 27.5436 39.3453 27.5599C38.1072 27.6253 36.7759 27.7327 35.727 28.4606C34.9217 29.0121 34.6772 30.1254 34.9645 31.0221C35.2355 31.6658 35.9785 31.8736 36.5869 32.0651C40.0894 32.9812 43.8009 32.8898 47.2366 34.0953C48.6591 34.5868 50.0505 35.5424 50.5374 37.0317C51.1743 39.0279 50.8952 41.4135 49.4749 43.0159C48.3232 44.3345 46.6459 45.0524 44.9729 45.4421C42.7474 45.9385 40.4377 45.9512 38.1776 45.7307C36.0524 45.4884 33.8406 44.9301 32.2001 43.4822C30.7971 42.2639 30.112 40.3657 30.1799 38.534C30.1961 38.2245 30.5042 38.0087 30.8006 38.0341C31.6497 38.0273 32.499 38.0249 33.3481 38.0355C33.6875 38.0111 33.9388 38.3043 33.9564 38.624C34.1127 39.6494 34.4982 40.726 35.3927 41.3337C37.1184 42.4473 39.2841 42.3711 41.2603 42.4022C42.8975 42.3297 44.7355 42.3078 46.0714 41.2256C46.7763 40.6083 46.9851 39.5756 46.7947 38.6873C46.5883 37.9373 45.8036 37.5878 45.1298 37.3593C41.6722 36.2657 37.919 36.6625 34.4949 35.4256C33.1046 34.9344 31.7603 34.0055 31.2264 32.5774C30.4812 30.556 30.8226 28.0557 32.3916 26.5077C33.9215 24.9673 36.1297 24.3741 38.2295 24.162Z" fill="#81CD39"/>
</g>
<defs>
<clipPath id="clip0_26374_28">
<rect width="69.244" height="69.244" fill="white"/>
</clipPath>
</defs>
</svg>
